<svg width="1024" height="1024" viewBox="0 0 1024 1024" fill="none" xmlns="http://www.w3.org/2000/svg">
    <rect x="59" y="59" width="906" height="906" rx="240" fill="#125DFF" stroke="#FEFEFE" stroke-width="40" />
    <path d="M261.011 135.005C261.604 134.978 262.197 134.961 262.791 134.954L593.256 134.938L704.701 134.932L739.777 134.898C752.497 134.892 772.709 131.863 775.4 150.746C776.183 156.222 775.635 163.812 775.635 169.56L775.594 202.363V307.107L775.574 637.136C781.264 637.156 786.033 637.13 791.538 638.743C799.904 641.199 806.925 646.931 811.003 654.644C813.178 658.661 814.477 663.093 814.81 667.648C815.439 676.41 815.04 688.882 815.045 698.008L815.05 754.146L815.04 827.05C815.04 839.875 815.05 852.701 814.943 865.526C814.81 880.568 808.04 890.808 794.593 897.283C788.601 899.703 783.899 899.862 777.544 899.893L592.223 899.913L540.251 899.908C532.714 899.908 522.255 900.22 515.061 899.458C509.125 898.828 500.872 894.596 496.657 890.148C487.224 880.184 486.765 871.048 486.883 858.295L336.47 858.31L287.274 858.346C278.461 858.351 269.456 858.443 260.839 858.131C253.328 857.859 245.058 850.884 244.24 843.504C243.523 837.02 243.837 828.488 243.838 821.855L243.87 779.167L243.875 630.037L243.872 310.351L243.868 204.459C243.867 187.898 243.897 171.285 243.804 154.726C243.781 150.636 245.099 145.561 247.595 142.312C251.249 137.555 255.309 135.864 261.011 135.005Z"
            fill="#FEFEFE" />
    <path d="M641.554 687.281C651.87 685.592 671.252 692.091 680.345 697.588C697.123 707.655 709.173 724.027 713.799 743.045C718.68 763.174 715.037 781.833 704.353 799.357L751.837 846.892C744.203 854.088 736.64 861.908 729.236 869.375L705.141 845.244L681.747 821.891C670.464 828.698 660.138 832.541 646.814 833.324C627.299 834.44 608.151 827.664 593.676 814.521C579.221 801.409 570.63 783.046 569.816 763.542C568.9 744.417 575.608 725.711 588.467 711.524C603.127 695.51 620.074 688.227 641.554 687.281Z"
            fill="#125DFF" />
    <ellipse cx="643.184" cy="760.51" rx="41.5723" ry="41.5723" fill="white" />
    <path d="M281.551 172.613L738.109 172.644L738.078 637.182L555.218 637.207L532.197 637.141C518.228 637.11 507.473 636.301 496.71 646.931C485.214 658.283 486.801 671.753 486.828 686.651L486.881 715.04L486.865 820.612L281.551 820.617V172.613Z"
            fill="#125DFF" />
    <path d="M549.615 453.867C562.663 452.679 578.213 455.252 590.78 458.538L590.8 503.18C590.815 516.957 592.038 537.654 588.487 550.382C579.789 581.535 538.573 577.845 514.36 570.352C515.429 565.89 516.412 561.406 517.302 556.908L518.934 548.658C525.908 551.641 534.172 553.351 541.73 553.75C557.541 554.594 565.093 550.705 565.723 534.092C539.366 544.169 513.188 533.493 510.476 503.441C508.01 476.093 521.528 456.381 549.615 453.867Z"
            fill="#FEFEFE" />
    <path d="M554.665 474.315C558.104 474.216 562.115 474.703 565.595 475.028L565.61 513.82C558.933 516.589 555.305 517.464 548.039 516.466C540.271 514.388 536.511 508.114 536.05 500.437C535.201 486.444 539.76 475.694 554.665 474.315Z"
            fill="#125DFF" />
    <path d="M446.762 452.83C506.418 447.119 512.252 539.399 456.748 545.587C444.909 546.559 434.102 544.63 424.507 537.127C404.496 521.502 402.568 487.017 418.105 467.727C425.316 458.773 435.485 453.993 446.762 452.83Z"
            fill="#FEFEFE" />
    <path d="M450.76 474.272C461.999 474.689 467.364 481.933 468.68 492.526C470.321 505.729 468.018 522.081 452.24 524.133C430.964 523.273 429.728 494.134 438.903 480.323C441.657 476.178 446.077 474.865 450.76 474.272Z"
            fill="#125DFF" />
    <path d="M319.612 427.052L346.098 427.051C345.671 458.096 346.068 490.095 346.061 521.221L397.523 521.216L397.485 543.734L319.614 543.745L319.612 427.052Z"
            fill="#FEFEFE" />
    <path d="M661.883 264.498C695.987 261.537 711.209 288.629 706.307 319.585L649.506 319.616C654.162 337.916 672.818 336.882 687.785 334.513C690.195 334.132 697 331.412 698.484 332.07L698.934 334.54C699.83 340.391 700.822 346.227 701.907 352.045C684.367 359.034 653.942 361.003 639.098 347.902C611.257 323.327 621.644 268.862 661.883 264.498Z"
            fill="#FEFEFE" />
    <path d="M665.736 284.914C677.198 284.375 680.887 292.418 682.734 302.047C678.462 302.352 671.728 302.149 667.276 302.155L649.68 302.147C651.957 292.059 654.684 286.347 665.736 284.914Z"
            fill="#125DFF" />
    <path d="M550.178 225.617L551.38 225.543C552.26 227.04 551.902 263.955 551.902 268.95C593.916 252.783 616.875 289.498 606.8 327.555C603.664 339.402 596.224 347.237 585.637 352.945C567.222 360.456 545.465 357.594 526.666 352.537L526.65 229.156C533.195 228.624 543.096 226.578 550.178 225.617Z"
            fill="#FEFEFE" />
    <path d="M565.093 287.03C572.584 287.059 578.893 290.211 581.257 297.629C585.427 310.73 583.969 329.244 569.468 334.863C563.891 336.368 557.536 335.629 551.887 335.06L551.907 290.188C557.357 287.919 559.199 287.542 565.093 287.03Z"
            fill="#125DFF" />
    <path d="M426.507 267.382L451.943 267.371L451.865 299.106C451.856 305.845 451.702 312.507 452.157 319.236C453.397 337.562 463.267 336.482 477.68 334.992L477.686 267.385L503.139 267.371L503.108 288.608L503.133 352.495C491.389 355.701 479.283 357.382 467.111 357.498C425.366 357.752 426.456 331.677 426.469 298.9L426.507 267.382Z"
            fill="#FEFEFE" />
    <path d="M385.528 238.717C395.891 238.596 406.538 238.722 416.923 238.737C400.703 257.286 385.122 274.918 367.725 292.404C382.558 305.651 390.653 314.87 402.753 330.554C408.639 338.646 414.269 346.923 419.634 355.37L388.19 355.408C376.743 337.922 362.113 319.934 346.108 306.461C345.866 322.593 346.063 339.228 346.05 355.401L319.615 355.405L319.612 238.714L346.1 238.713L346.027 281.744C359.235 268.481 372.92 252.749 385.528 238.717Z"
            fill="#FEFEFE" />
</svg>
